<svg xmlns="http://www.w3.org/2000/svg" viewBox="0 0 1256 235" preserveAspectRatio="none">
    <path d="m0,247.40625l0,-102.40625l21.193277,0l24.220888,3l21.193277,4l12.110444,-3l15.138055,6l42.386554,5l46.927971,9c0,0 72.662664,0.40625 72.662664,0.40625c0,0 30.27611,-4 30.27611,-4c0,0 45.414165,-6 45.414165,-6.40625c0,-0.40625 40.872749,-3.59375 40.872749,-4c0,-0.40625 33.303721,1.40625 33.303721,1c0,-0.40625 34.817527,1.40625 34.817527,1c0,-0.40625 49.955582,-4.59375 49.955582,-5c0,-0.40625 52.983193,0.40625 52.983193,0c0,-0.40625 34.817527,-14.59375 34.817527,-14.59375c0,0 52.983193,-1 52.983193,-1c0,0 45.414165,7 45.414165,6.59375c0,-0.40625 37.845138,11.40625 37.845138,11.40625c0,0 45.414165,10 46.927971,10c1.513806,0 65.093637,10 65.093637,9.59375c0,-0.40625 65.093637,7.40625 65.093637,7c0,-0.40625 71.148859,0.40625 71.148859,0.40625c0,0 133.214885,0 134.72869,0c1.513806,0 21.193277,5 21.193277,4.59375c0,-0.40625 0,10.40625 0,10c0,-0.40625 34.817527,5.40625 34.817527,5c0,-0.40625 30.27611,9.40625 30.27611,9c0,-0.40625 75.690275,14.40625 75.690275,14c0,-0.40625 1.513806,23.40625 1.513806,23c0,-0.40625 -1260.999989,0.40625 -1260.999989,0.40625z"/>
</svg>
