<svg xmlns="http://www.w3.org/2000/svg" viewBox="0 0 1256 235" preserveAspectRatio="none">
    <path d="m-1,220.40625l41,-39.40625l50,-12l60,10l51,16c0,0 77,16.40625 77,16.40625c0,0 109,9 109,8.59375c0,-0.40625 184,4.40625 184,4c0,-0.40625 227,2.40625 227,2c0,-0.40625 96,-14.59375 96,-15c0,-0.40625 71,-25.59375 71,-26c0,-0.40625 79,-9.59375 79,-10c0,-0.40625 41,3.40625 41,3c0,-0.40625 58,22.40625 58,22c0,-0.40625 55,14.40625 55,14c0,-0.40625 59,10.40625 59,10c0,-0.40625 2,12.40625 2,12c0,-0.40625 -1260,-0.59375 -1260,-1c0,-0.40625 0,-14.59375 0,-14.59375z"/>
</svg>
