<svg xmlns="http://www.w3.org/2000/svg" viewBox="0 0 1256 235" preserveAspectRatio="none">
    <path d="m-3,231.40625l27.800796,-25.40625l49.11474,-22c0,0 29.654182,1.40625 29.654182,1.40625c0,0 22.240637,13 22.240637,12.59375c0,-0.40625 17.607171,19.40625 17.607171,19c0,-0.40625 10.193625,14.40625 10.193625,14c0,-0.40625 792.322687,0.40625 792.322687,0c0,-0.40625 31.507569,-27.59375 31.507569,-28c0,-0.40625 35.214342,-13.59375 35.214342,-13.59375c0,0 47.261353,-1 47.261353,-1.40625c0,-0.40625 39.847808,10.40625 39.847808,10c0,-0.40625 43.55458,16.40625 43.55458,16c0,-0.40625 16.680478,20.40625 16.680478,20c0,-0.40625 -1162.999967,-2.59375 -1162.999967,-2.59375z"/>
</svg>
