<svg xmlns="http://www.w3.org/2000/svg" viewBox="0 0 1256 235" preserveAspectRatio="none">
    <path d="m1190,221.40625l-105,-110.40625c0,0 -134,-37.59375 -134,-37.59375c0,0 -62,41 -62,40.59375c0,-0.40625 -47,19.40625 -47,19c0,-0.40625 -72,-36.59375 -72,-37c0,-0.40625 -83,39.40625 -83,39c0,-0.40625 -48,-30.59375 -48,-30.59375c0,0 -81,28 -81,27.59375c0,-0.40625 -62,-35.59375 -62,-36c0,-0.40625 -62,-40.59375 -62,-41c0,-0.40625 -61,13.40625 -61,13c0,-0.40625 -73,30.40625 -73,30c0,-0.40625 -51,-54.59375 -51,-55c0,-0.40625 -23,7.40625 -23,7.40625c0,0 -21,-16 -21,-16.40625c0,-0.40625 -71,29.40625 -71,29c0,-0.40625 -135,104.40625 -135,104c0,-0.40625 1,64.40625 1,64c0,-0.40625 1190,2.40625 1190,2c0,-0.40625 0,-11.59375 0,-11.59375z"/>
</svg>
