<svg xmlns="http://www.w3.org/2000/svg" viewBox="0 0 1256 235" preserveAspectRatio="none">
  <path d="m1039,234.40625l-136,-137.40625l-25,-12l-35,15l-20,-18l-59,-8l-34,44l-35,-27l-39,4l-14,-9l-55,18c0,0 -55,-32.59375 -55,-32.59375c0,0 -48,14 -48,13.59375c0,-0.40625 -66,-54.59375 -66,-54.59375c0,0 -25,14 -25,13.59375c0,-0.40625 -12,-13.59375 -13,-14.59375c-1,-1 -26,16 -26,15.59375c0,-0.40625 -16,0.40625 -16,0.40625c0,0 -27,-8 -27,-8.40625c0,-0.40625 -16,-13.59375 -16,-13.59375c0,0 -17,18 -17,17.59375c0,-0.40625 -12,-18.59375 -12,-19c0,-0.40625 -19,-4.59375 -20,-4.59375c-1,0 -22,9 -22,8.59375c0,-0.40625 -16,-5.59375 -16,-6c0,-0.40625 -25,2.40625 -25,2c0,-0.40625 -31,-13.59375 -31,-13.59375c0,0 -151,186 -151,185.59375c0,-0.40625 -2,38.40625 -2,38c0,-0.40625 1040,2.40625 1040,2.40625z"/>
  <path d="m152.286281,8.879477l0.256092,7.693027l8.286252,5.461394l1.694915,9.416196l-6.214689,10.734463l-3.578154,17.3258c0,0 5.016978,5.677972 5.016978,5.677972c0,0 16.384181,2.824859 16.263625,2.796604c-0.120557,-0.028255 8.595133,-9.952913 8.474576,-9.981168c-0.120557,-0.028254 -3.457598,-23.888884 -3.578154,-23.917137c-0.120557,-0.028254 4.075359,-11.836153 3.954802,-11.864407c-0.120557,-0.028254 -30.576242,-13.342745 -30.576242,-13.342745z" fill="#007f7f"/>
  <path d="m207.653514,19.990589l-5.205303,8.446323l-9.60452,4.33145l12.806026,15.254237l28.625235,1.506591l-10.546139,-23.54049l-16.0753,-5.998112z" fill="#007f7f"/>
  <path d="m266.03393,22.4388l-2.003798,9.76459l-16.007533,3.954802l24.670433,38.229755l25.047081,0l-19.962335,-33.145009l-11.743848,-18.804138z" fill="#007f7f"/>
</svg>
