<svg xmlns="http://www.w3.org/2000/svg" viewBox="0 0 1256 235" preserveAspectRatio="none">
    <path d="m-1,234.40625l0,-109.40625l25,-7l32,5l21,-6c0,0 16,-28.59375 17,-28.59375c1,0 21,-27 21,-27.40625c0,-0.40625 19,30.40625 19,30c0,-0.40625 48,-10.59375 48,-11c0,-0.40625 29,12.40625 29,12.40625c0,0 33,-15 33,-15.40625c0,-0.40625 26,33.40625 26,33c0,-0.40625 14,19.40625 14,19c0,-0.40625 25,0.40625 25,0.40625c0,0 41,-2 41,-2.40625c0,-0.40625 32,-14.59375 32,-14.59375c0,0 51,-30 51,-30c0,0 24,19 24,18.59375c0,-0.40625 33,10.40625 33,11.40625c0,1 22,14 22,13.59375c0,-0.40625 79,38.40625 79,38c0,-0.40625 62,1.40625 62,0.40625c0,-1 25,-8 25,-8c0,0 82,-32 82,-32.40625c0,-0.40625 43,8.40625 43,8c0,-0.40625 46,28.40625 46,28c0,-0.40625 39,19.40625 39,19c0,-0.40625 60,-26.59375 60,-27c0,-0.40625 33,-25.59375 33,-26c0,-0.40625 70,27.40625 70,27.40625c0,0 54,11 54,10.59375c0,-0.40625 39,-3.59375 39,-4c0,-0.40625 45,29.40625 45,29c0,-0.40625 45,-6.59375 45,-7c0,-0.40625 24,13.40625 24,13c0,-0.40625 2,40.40625 2,40c0,-0.40625 -1261,-0.59375 -1261,-0.59375z"/>
</svg>
