<svg xmlns="http://www.w3.org/2000/svg" viewBox="0 0 1256 235" preserveAspectRatio="none">
    <path d="m1,235.40625l-1,-36.40625l27,-29l17,-8c0,0 16,-3.59375 16,-3.59375c0,0 18,-11 18,-11.40625c0,-0.40625 17,6.40625 17,6c0,-0.40625 16,-3.59375 16,-4c0,-0.40625 20,-11.59375 20,-12c0,-0.40625 10,12.40625 10,12c0,-0.40625 19,0.40625 19,0c0,-0.40625 19,8.40625 19,8c0,-0.40625 4,11.40625 4,11c0,-0.40625 9,0.40625 9,0.40625c0,0 18,-12 18,-12c0,0 13,17 13,16.59375c0,-0.40625 13,4.40625 13,4.40625c0,0 14,2 14,1.59375c0,-0.40625 20,-4.59375 20,-5c0,-0.40625 25,10.40625 25,10c0,-0.40625 14,12.40625 14,12c0,-0.40625 11,4.40625 11,4c0,-0.40625 63,-10.59375 63,-11c0,-0.40625 39,0.40625 40,0.40625c1,0 49,25 49,24.59375c0,-0.40625 88,2.40625 88,2c0,-0.40625 26,-6.59375 26,-7c0,-0.40625 42,-19.59375 42,-20c0,-0.40625 19,4.40625 19,4.40625c0,0 49,11 49,10.59375c0,-0.40625 37,5.40625 37,5c0,-0.40625 39,-3.59375 39,-4c0,-0.40625 41,-24.59375 41,-24.59375c0,0 24,3 24,2.59375c0,-0.40625 22,3.40625 22,3c0,-0.40625 19,0.40625 19,0.40625c0,0 37,-13 37,-13c0,0 41,-16 41,-16.40625c0,-0.40625 10,8.40625 10,8.40625c0,0 62,-3 62,-3.40625c0,-0.40625 2,-9.59375 2,-10c0,-0.40625 35,6.40625 35,6.40625c0,0 31,10 31,9.59375c0,-0.40625 32,10.40625 32,10c0,-0.40625 18,-0.59375 18,-0.59375c0,0 27,1 27,1c0,0 1,17 1,17c0,0 9,1 9,0.59375c0,-0.40625 27,0.40625 27,0.40625c0,0 38,8 38,7.59375c0,-0.40625 11,2.40625 11,2c0,-0.40625 1,30.40625 1,30c0,-0.40625 -1259,-0.59375 -1259,-0.59375z"/>
</svg>
