<svg xmlns="http://www.w3.org/2000/svg" viewBox="0 0 1256 235" preserveAspectRatio="none">
    <path d="m0,233.40625l0,-112.40625l27,-19l6,7l13,-14l7,5l19,-17l16,-3l28,-29l21,21l64,-23l23,23l18,-10l33,29l28,0c0,0 23,15.40625 23,15.40625c0,0 28,-22 28,-22.40625c0,-0.40625 18,8.40625 18,8c0,-0.40625 55,-28.59375 55,-29c0,-0.40625 36,20.40625 36,20c0,-0.40625 27,22.40625 27,22c0,-0.40625 14,-2.59375 14,-3c0,-0.40625 17,13.40625 17,13c0,-0.40625 31,-15.59375 31,-16c0,-0.40625 35,17.40625 35,17c0,-0.40625 17,-5.59375 17,-6c0,-0.40625 36,29.40625 36,29c0,-0.40625 38,-12.59375 38,-13c0,-0.40625 34,9.40625 34,9c0,-0.40625 62,-25.59375 62,-26c0,-0.40625 41,10.40625 41,10c0,-0.40625 15,11.40625 15,11.40625c0,0 21,18 21,17.59375c0,-0.40625 38,-16.59375 38,-17c0,-0.40625 25,2.40625 25,2.40625c0,0 31,-25 31,-25.40625c0,-0.40625 27,-9.59375 27,-10c0,-0.40625 52,15.40625 52,15c0,-0.40625 12,16.40625 12,16c0,-0.40625 28,0.40625 28,0c0,-0.40625 46,25.40625 46,25c0,-0.40625 23,-22.59375 23,-21c0,1.59375 51,40.40625 51,40c0,-0.40625 29,1.40625 29,1c0,-0.40625 13,-20.59375 13,-21c0,-0.40625 32,26.40625 32,26c0,-0.40625 2,55.40625 2,55c0,-0.40625 -1260,-0.59375 -1260,-0.59375z"/>
</svg>
